<mxfile host="app.diagrams.net" modified="2024-02-12T14:42:40.021Z" agent="Mozilla/5.0 (Windows NT 10.0; Win64; x64; rv:109.0) Gecko/20100101 Firefox/115.0" etag="itaF3HoQgYDPQi4j9sOU" version="23.1.2" type="device">
  <diagram name="Page-1" id="g2aWewhqDnkNnzcvFuZF">
    <mxGraphModel dx="1050" dy="566" grid="1" gridSize="10" guides="1" tooltips="1" connect="1" arrows="1" fold="1" page="1" pageScale="1" pageWidth="827" pageHeight="1169" math="0" shadow="0">
      <root>
        <mxCell id="0" />
        <mxCell id="1" parent="0" />
        <mxCell id="HcanFN06lONcri5jvTLH-2" value="AWS Cloud" style="points=[[0,0],[0.25,0],[0.5,0],[0.75,0],[1,0],[1,0.25],[1,0.5],[1,0.75],[1,1],[0.75,1],[0.5,1],[0.25,1],[0,1],[0,0.75],[0,0.5],[0,0.25]];outlineConnect=0;gradientColor=none;html=1;whiteSpace=wrap;fontSize=12;fontStyle=0;container=1;pointerEvents=0;collapsible=0;recursiveResize=0;shape=mxgraph.aws4.group;grIcon=mxgraph.aws4.group_aws_cloud_alt;strokeColor=#232F3E;fillColor=none;verticalAlign=top;align=left;spacingLeft=30;fontColor=#232F3E;dashed=0;" vertex="1" parent="1">
          <mxGeometry x="280" y="80" width="520" height="280" as="geometry" />
        </mxCell>
        <mxCell id="HcanFN06lONcri5jvTLH-14" value="Tagged EC2 Instances" style="fillColor=#EFF0F3;strokeColor=none;dashed=0;verticalAlign=top;fontStyle=0;fontColor=#232F3D;whiteSpace=wrap;html=1;" vertex="1" parent="HcanFN06lONcri5jvTLH-2">
          <mxGeometry x="355" y="40" width="130" height="200" as="geometry" />
        </mxCell>
        <mxCell id="HcanFN06lONcri5jvTLH-11" style="edgeStyle=orthogonalEdgeStyle;rounded=0;orthogonalLoop=1;jettySize=auto;html=1;" edge="1" parent="HcanFN06lONcri5jvTLH-2" source="HcanFN06lONcri5jvTLH-1" target="HcanFN06lONcri5jvTLH-8">
          <mxGeometry relative="1" as="geometry" />
        </mxCell>
        <mxCell id="HcanFN06lONcri5jvTLH-1" value="" style="sketch=0;outlineConnect=0;fontColor=#232F3E;gradientColor=none;fillColor=#E7157B;strokeColor=none;dashed=0;verticalLabelPosition=bottom;verticalAlign=top;align=center;html=1;fontSize=12;fontStyle=0;aspect=fixed;pointerEvents=1;shape=mxgraph.aws4.eventbridge_scheduler;" vertex="1" parent="HcanFN06lONcri5jvTLH-2">
          <mxGeometry x="80" y="120" width="39" height="39" as="geometry" />
        </mxCell>
        <mxCell id="HcanFN06lONcri5jvTLH-7" value="Amazon EventBridge Scheduler" style="text;html=1;align=center;verticalAlign=middle;resizable=1;points=[];autosize=1;strokeColor=none;fillColor=none;html=1;whiteSpace=wrap;" vertex="1" parent="HcanFN06lONcri5jvTLH-2">
          <mxGeometry x="41.75" y="160" width="115.5" height="29" as="geometry" />
        </mxCell>
        <mxCell id="HcanFN06lONcri5jvTLH-15" style="edgeStyle=orthogonalEdgeStyle;rounded=0;orthogonalLoop=1;jettySize=auto;html=1;entryX=0;entryY=0.5;entryDx=0;entryDy=0;" edge="1" parent="HcanFN06lONcri5jvTLH-2" source="HcanFN06lONcri5jvTLH-8" target="HcanFN06lONcri5jvTLH-14">
          <mxGeometry relative="1" as="geometry" />
        </mxCell>
        <mxCell id="HcanFN06lONcri5jvTLH-8" value="" style="sketch=0;outlineConnect=0;fontColor=#232F3E;gradientColor=none;fillColor=#ED7100;strokeColor=none;dashed=0;verticalLabelPosition=bottom;verticalAlign=top;align=center;html=1;fontSize=12;fontStyle=0;aspect=fixed;pointerEvents=1;shape=mxgraph.aws4.lambda_function;" vertex="1" parent="HcanFN06lONcri5jvTLH-2">
          <mxGeometry x="240" y="120" width="39" height="39" as="geometry" />
        </mxCell>
        <mxCell id="HcanFN06lONcri5jvTLH-10" value="start-stop-instances AWS Lambda Function" style="text;html=1;align=center;verticalAlign=middle;resizable=1;points=[];autosize=1;strokeColor=none;fillColor=none;html=1;whiteSpace=wrap;" vertex="1" parent="HcanFN06lONcri5jvTLH-2">
          <mxGeometry x="201" y="158" width="117" height="40" as="geometry" />
        </mxCell>
        <mxCell id="HcanFN06lONcri5jvTLH-12" value="" style="sketch=0;outlineConnect=0;fontColor=#232F3E;gradientColor=none;fillColor=#ED7100;strokeColor=none;dashed=0;verticalLabelPosition=bottom;verticalAlign=top;align=center;html=1;fontSize=12;fontStyle=0;aspect=fixed;pointerEvents=1;shape=mxgraph.aws4.instance2;" vertex="1" parent="HcanFN06lONcri5jvTLH-2">
          <mxGeometry x="400" y="81" width="39" height="39" as="geometry" />
        </mxCell>
        <mxCell id="HcanFN06lONcri5jvTLH-13" value="" style="sketch=0;outlineConnect=0;fontColor=#232F3E;gradientColor=none;fillColor=#ED7100;strokeColor=none;dashed=0;verticalLabelPosition=bottom;verticalAlign=top;align=center;html=1;fontSize=12;fontStyle=0;aspect=fixed;pointerEvents=1;shape=mxgraph.aws4.instance2;" vertex="1" parent="HcanFN06lONcri5jvTLH-2">
          <mxGeometry x="400" y="159" width="39" height="39" as="geometry" />
        </mxCell>
        <mxCell id="HcanFN06lONcri5jvTLH-4" style="edgeStyle=orthogonalEdgeStyle;rounded=0;orthogonalLoop=1;jettySize=auto;html=1;" edge="1" parent="1" source="HcanFN06lONcri5jvTLH-3" target="HcanFN06lONcri5jvTLH-1">
          <mxGeometry relative="1" as="geometry" />
        </mxCell>
        <mxCell id="HcanFN06lONcri5jvTLH-3" value="" style="sketch=0;outlineConnect=0;fontColor=#232F3E;gradientColor=none;fillColor=#232F3D;strokeColor=none;dashed=0;verticalLabelPosition=bottom;verticalAlign=top;align=center;html=1;fontSize=12;fontStyle=0;aspect=fixed;pointerEvents=1;shape=mxgraph.aws4.user;rotation=0;" vertex="1" parent="1">
          <mxGeometry x="120" y="200" width="39" height="39" as="geometry" />
        </mxCell>
        <mxCell id="HcanFN06lONcri5jvTLH-5" value="&lt;font style=&quot;font-size: 12px;&quot;&gt;User creates schedule through Terraform&lt;br&gt;&lt;/font&gt;" style="text;html=1;align=center;verticalAlign=middle;resizable=1;points=[];autosize=1;strokeColor=none;fillColor=none;html=1;whiteSpace=wrap;" vertex="1" parent="1">
          <mxGeometry x="170" y="179" width="100" height="30" as="geometry" />
        </mxCell>
      </root>
    </mxGraphModel>
  </diagram>
</mxfile>
